<svg id="trash-btn" xmlns="http://www.w3.org/2000/svg" width="40" height="72.039" viewBox="0 0 40 72.039">
  <g id="楕円形_22" data-name="楕円形 22" fill="#0f8390" stroke="#0f8390" stroke-width="1">
    <circle cx="20" cy="20" r="20" stroke="none"/>
    <circle cx="20" cy="20" r="19.5" fill="none"/>
  </g>
  <path id="FontAwsome_trash_" data-name="FontAwsome (trash)" d="M16.993,1.259h-4.72L11.9.523A.944.944,0,0,0,11.057,0h-4.5a.933.933,0,0,0-.842.523l-.37.736H.629A.629.629,0,0,0,0,1.888V3.147a.629.629,0,0,0,.629.629H16.993a.629.629,0,0,0,.629-.629V1.888A.629.629,0,0,0,16.993,1.259ZM2.093,18.37a1.888,1.888,0,0,0,1.884,1.77h9.669a1.888,1.888,0,0,0,1.884-1.77l.834-13.335H1.259Z" transform="translate(11 9.857)" fill="#cbdcdd"/>
  <path id="パス_15167" data-name="パス 15167" d="M0-5.248H16.889L18.569-9l1.669,3.752H37.232V18.039H0Z" transform="translate(1.384 54)" fill="#0f8390"/>
  <text id="削除" transform="translate(5.558 66.036)" fill="#fff" font-size="14" font-family="HiraginoSans-W3, Hiragino Sans"><tspan x="0" y="0">削除</tspan></text>
</svg>
